<?xml version="1.0" encoding="UTF-8"?>
<svg width="31px" height="33px" viewBox="0 0 31 33" version="1.1" xmlns="http://www.w3.org/2000/svg" xmlns:xlink="http://www.w3.org/1999/xlink">
    <!-- Generator: Sketch 50.2 (55047) - http://www.bohemiancoding.com/sketch -->
    <title>Shape</title>
    <desc>Created with Sketch.</desc>
    <defs></defs>
    <g id="Page-1" stroke="none" stroke-width="1" fill="none" fill-rule="evenodd">
        <g id="Desktop-Copy-2" transform="translate(-621.000000, -1163.000000)" fill="#858585" fill-rule="nonzero">
            <g id="Group-7" transform="translate(595.000000, 831.000000)">
                <g id="Group-9" transform="translate(23.000000, 203.000000)">
                    <g id="noun_1757415_cc" transform="translate(3.000000, 129.000000)">
                        <g id="Group" transform="translate(0.000000, 0.350801)">
                            <path d="M15.5,0.1991935 C6.95223103,0.1991935 0,7.3533185 0,16.14921 C0,24.94503 6.95223103,32.09921 15.5,32.09921 C24.047769,32.09921 31,24.94503 31,16.14921 C31,7.3533185 24.047769,0.1991935 15.5,0.1991935 Z M15.5,2.3991935 C22.8923241,2.3991935 28.862069,8.5423085 28.862069,16.14921 C28.862069,23.75604 22.8923241,29.89921 15.5,29.89921 C8.10767586,29.89921 2.13793103,23.75604 2.13793103,16.14921 C2.13793103,8.5423085 8.10767586,2.3991935 15.5,2.3991935 Z M15.5,6.2491935 C14.9096103,6.2491935 14.4310345,6.7416635 14.4310345,7.3491935 L14.4310345,16.14921 C14.474381,16.574855 14.6448864,16.80987 14.8987069,17.06012 L20.0431034,22.371085 C20.4605772,22.80069 21.1288678,22.80069 21.5463362,22.371085 C21.9638047,21.94148 21.9638047,21.253815 21.5463362,20.82421 L16.5689655,15.702335 L16.5689655,7.3491935 C16.5689655,6.7416635 16.0903897,6.2491935 15.5,6.2491935 Z" id="Shape"></path>
                        </g>
                    </g>
                </g>
            </g>
        </g>
    </g>
</svg>