<?xml version="1.0" encoding="UTF-8"?>
<svg width="108px" height="84px" viewBox="0 0 108 84" version="1.1" xmlns="http://www.w3.org/2000/svg" xmlns:xlink="http://www.w3.org/1999/xlink">
    <!-- Generator: Sketch 50.2 (55047) - http://www.bohemiancoding.com/sketch -->
    <title>Group</title>
    <desc>Created with Sketch.</desc>
    <defs>
        <linearGradient x1="-13.4695472%" y1="-9.87849885%" x2="110.12549%" y2="120.413957%" id="linearGradient-1">
            <stop stop-color="#51DDD3" offset="0%"></stop>
            <stop stop-color="#79B7EE" offset="100%"></stop>
        </linearGradient>
    </defs>
    <g id="Page-1" stroke="none" stroke-width="1" fill="none" fill-rule="evenodd">
        <g id="Desktop-Copy-2" transform="translate(-461.000000, -1490.000000)">
            <g id="Group" transform="translate(461.000000, 1490.000000)">
                <rect id="Rectangle-6" fill="#FFFFFF" opacity="0.01" x="82" y="29" width="26" height="17"></rect>
                <path d="M60.456689,15.3625903 C56.4912884,18.2704141 50.5003141,18.250044 46.5559458,15.3133627 C45.8246684,14.7701615 44.8151172,14.9517944 44.2990165,15.7139735 C43.781298,16.4795477 43.9527922,17.53879 44.6824518,18.0819912 C47.2095655,19.9611277 50.3530878,21 53.5386748,21 C56.6854329,21 59.7998336,19.9848928 62.3091507,18.1447988 C63.0404281,17.6083876 63.2200118,16.5508428 62.7087647,15.7801762 C62.1958998,15.0129045 61.1879664,14.8244816 60.456689,15.3625903 Z" id="Shape" fill="url(#linearGradient-1)" fill-rule="nonzero"></path>
                <path d="M49.9329685,34.4854338 L44.4674499,32.5330758 L42.5168585,27.0687269 C42.2883238,26.4281346 41.6815804,26 41.0008047,26 C40.320029,26 39.7132856,26.4281346 39.4847509,27.0687269 L37.5341595,32.5330758 L32.0686409,34.4854338 C31.4281001,34.7155963 31,35.3223885 31,36 C31,36.68244 31.4281001,37.2892323 32.0686409,37.5161758 L37.5341595,39.4669242 L39.4847509,44.9312731 C39.7132856,45.5718654 40.320029,46 41.0008047,46 C41.6815804,46 42.2883238,45.5718654 42.5168585,44.9312731 L44.4674499,39.4669242 L49.9329685,37.5161758 C50.5718999,37.2876227 51,36.6808305 51,36 C51,35.3223885 50.5718999,34.7155963 49.9329685,34.4854338 Z M42.6681419,36.6920972 C42.2142915,36.8562691 41.8570049,37.2135844 41.6944556,37.6658619 L41.0024141,39.6053436 L40.3103726,37.6658619 C40.1478233,37.2135844 39.7905367,36.8546596 39.3366862,36.6920972 L37.39897,36 L39.3366862,35.3079028 C39.7905367,35.1437309 40.1478233,34.7880251 40.3103726,34.3341381 L41.0024141,32.3946564 L41.6944556,34.3341381 C41.8570049,34.7880251 42.2142915,35.1453404 42.6681419,35.3079028 L44.6058582,36 L42.6681419,36.6920972 Z" id="Shape" fill="url(#linearGradient-1)" fill-rule="nonzero"></path>
                <path d="M87.9369066,9.87601883 L82.640681,7.97956607 L80.7502027,2.67431983 C80.5225115,2.03466881 79.9180074,1.60716336 79.2397442,1.60716336 C78.5630844,1.60716336 77.9585803,2.03466881 77.7308891,2.67431983 L76.4753806,6.19882907 C71.2416899,3.40879348 64.309936,3.95522902 57.4599586,7.74009873 C56.1355013,8.47296522 54.7469057,8.903685 53.3294478,9.02261508 C51.9135934,8.903685 50.5249977,8.47296522 49.202144,7.74170589 C42.1838033,3.86040638 35.069255,3.35575709 29.7954779,6.38043853 C27.8633096,7.48938124 26.2774885,8.95350706 24.9851004,10.6860292 L21.5553013,1.06715647 C21.3276101,0.427505453 20.7215026,0 20.0448428,0 C19.3665796,0 18.7620755,0.427505453 18.5343843,1.06715647 L13.9372669,13.9694639 L1.06469687,18.5772012 C0.426520133,18.8054184 0,19.411319 0,20.089542 C0,20.7677649 0.426520133,21.3752726 1.06469687,21.6018827 L13.9372669,26.20962 L18.5343843,39.1103203 C18.7620755,39.7499713 19.3665796,40.1774768 20.0448428,40.1774768 C20.7215026,40.1774768 21.3276101,39.7499713 21.5553013,39.1103203 L23.0112422,35.0281254 C23.8338168,37.9965561 24.8969102,40.9858799 26.1973156,43.7919871 C27.4319791,46.4502353 27.7478606,49.0313397 27.1898568,51.9097693 C26.7168363,54.3462289 26.4779209,56.8598324 26.4779209,59.3862932 C26.4779209,67.6921134 29.0530763,75.6025715 33.7303666,81.6567558 C35.1863075,83.5403513 37.6059274,84.3873264 39.9309432,83.8199977 C42.2848212,83.2430261 44.0053329,81.4092527 44.4206288,79.0306509 L47.906549,59.0375387 C48.2673273,56.9691195 49.9974597,55.5242796 52.1156292,55.5242796 L54.5416629,55.5242796 C56.6598324,55.5242796 58.3915683,56.9675123 58.7523466,59.0375387 L62.2366634,79.0322581 C62.6519593,81.4108598 64.3708675,83.2446332 66.726349,83.8216049 C67.215404,83.940535 67.7124764,84 68.2047383,84 C70.0551302,84 71.7772453,83.1465963 72.9269255,81.658363 C77.6042158,75.6025715 80.1793712,67.6937206 80.1793712,59.3879004 C80.1793712,56.8678682 79.9404558,54.3494432 79.4690388,51.9113764 C78.9094316,49.0329468 79.225313,46.4534497 80.4583731,43.7935943 C84.5006936,35.0875904 87.3291956,23.0788658 83.7967751,14.3857192 L87.9369066,12.9039146 C88.5734799,12.6756974 89,12.0697968 89,11.3899667 C89,10.7117438 88.5734799,10.1058432 87.9369066,9.87601883 Z M80.15625,9.84114583 C80.3252841,10.3101326 80.6931818,10.6780303 81.1588542,10.84375 L83,11.5 L81.1588542,12.15625 C80.9997633,12.2142519 80.8738163,12.3236269 80.7412405,12.4214015 C80.4860322,12.6152936 80.2672822,12.8522727 80.1545928,13.1588542 L79.4983428,15 L78.8420928,13.1588542 C78.6747159,12.6931818 78.3084754,12.3236269 77.8394886,12.15625 L76,11.5 L77.8394886,10.84375 C78.1526989,10.7327178 78.3946496,10.507339 78.5868845,10.2455019 C78.6830019,10.1162405 78.7874053,9.99692235 78.8420928,9.84114583 L79.045928,9.26941288 L79.0807292,9.16998106 L79.4983428,8 L80.15625,9.84114583 Z M19.4992084,33 L16.199613,23.7572417 C16.0396998,23.3123607 15.6882074,22.9593057 15.241717,22.7994019 L6,19.5 L15.241717,16.2005981 C15.6882074,16.0391111 16.0396998,15.6876393 16.199613,15.2427583 L19.4992084,6 L22.5074767,14.4226574 L22.800387,15.2427583 C22.9603002,15.6876393 23.3117926,16.0406943 23.758283,16.2005981 L33,19.5 L23.758283,22.7994019 C23.3117926,22.9608889 22.9603002,23.3123607 22.800387,23.7572417 L19.4992084,33 Z M77.3805966,42.732305 C77.1408539,43.248674 76.9378716,43.7682502 76.7540689,44.28943 C74.7610074,48.3305783 76.087584,52.4631335 76.1515154,52.7982922 C76.5846506,55.0321492 76.8036157,57.3365659 76.8036157,59.6473971 C76.8036157,67.2277574 74.4733161,74.4216428 70.2426555,79.9060583 C69.5489998,80.8056949 68.4621659,81.1841516 67.3481612,80.9115345 C66.2373531,80.6389173 65.45739,79.8114441 65.2639975,78.6969211 L61.790924,58.7461569 C61.1691911,55.1748723 58.0797061,52.5850094 54.4436076,52.5850094 L52.0254023,52.5850094 C48.390902,52.5850094 45.2998187,55.1748723 44.6796841,58.7461569 L41.2066106,78.6969211 C41.0132181,79.8114441 40.233255,80.6389173 39.1224469,80.9115345 C38.0180319,81.1873589 36.9232066,80.8089021 36.2279526,79.9060583 C31.997292,74.4216428 29.6669924,67.2277574 29.6669924,59.6473971 C29.6669924,57.3333586 29.8859575,55.0273383 30.3190927,52.7982922 C30.9999622,49.2783238 30.5971943,45.9860709 29.0900115,42.7339087 C27.164078,38.5789026 25.71763,33.9909164 25,29.7653507 L25.1917942,29.2281345 L26.1475687,26.5436575 L38.9786012,21.9460495 C39.6147187,21.718334 40.0398625,21.1137654 40.0398625,20.4370334 C40.0398625,19.7603014 39.6147187,19.1541292 38.9786012,18.9280173 L26.5327554,14.4683215 C27.6739309,12.3852058 29.2961903,10.7302594 31.3643712,9.54357299 C35.6493734,7.08360416 41.5806093,7.60638763 47.5757766,10.9242987 C49.3402833,11.8993059 51.205482,12.4637837 53.1234241,12.6016959 C53.1985435,12.6065068 53.2768595,12.6065068 53.3519789,12.6016959 C55.2667244,12.4637837 57.1319231,11.8993059 58.8964298,10.922695 C64.3737527,7.89343745 69.8191099,7.17821835 73.9634631,8.96786973 L70.4008857,10.2459631 C69.7647683,10.4752822 69.3396244,11.0798508 69.3396244,11.7549791 C69.3396244,12.4349184 69.7647683,13.039487 70.4008857,13.2655988 L75.6768247,15.1562789 L77.5628011,20.4530697 C77.7913559,21.0897109 78.3939093,21.5162766 79.0667874,21.5162766 C79.7444602,21.5162766 80.3470137,21.0897109 80.5723719,20.4530697 L81.3731127,18.2047801 C83.2494994,25.7723113 80.6187222,35.7533061 77.3805966,42.732305 Z" id="Shape" fill="url(#linearGradient-1)" fill-rule="nonzero"></path>
            </g>
        </g>
    </g>
</svg>