<?xml version="1.0" encoding="UTF-8"?>
<svg width="16px" height="16px" viewBox="0 0 16 16" version="1.1" xmlns="http://www.w3.org/2000/svg" xmlns:xlink="http://www.w3.org/1999/xlink">
    <!-- Generator: Sketch 51 (57462) - http://www.bohemiancoding.com/sketch -->
    <title>Group 5</title>
    <desc>Created with Sketch.</desc>
    <defs>
        <linearGradient x1="132.533061%" y1="123.333592%" x2="-82.1086841%" y2="-67.0192514%" id="linearGradient-1">
            <stop stop-color="#009CD1" offset="0%"></stop>
            <stop stop-color="#AAE0F2" offset="100%"></stop>
        </linearGradient>
        <path d="M7.98251163,3.15646512 L7.9784186,3.15795349 C7.85004651,3.10418605 7.07795349,2.79702326 6.24465116,2.79702326 C5.51851163,2.79702326 4.94790698,3.02474419 4.54939535,3.47404651 C3.96576744,4.13227907 3.76502326,5.25786047 3.95274419,6.81953488 L3.95348837,6.824 C3.95553488,6.83646512 4.17748837,8.06288372 4.64260465,8.86102326 C4.86586047,9.24390698 4.86623256,9.46437209 4.86772093,9.94809302 C4.86883721,10.3832558 4.87051163,11.039814 5.05506977,12.212093 C5.07423256,12.3105116 5.5332093,14.6210233 6.23553488,14.6210233 C6.30623256,14.6210233 6.37451163,14.5988837 6.44409302,14.5536744 C6.79665116,14.324093 6.87106977,13.4697674 6.9575814,12.48 C7.06976744,11.192186 7.18604651,9.86046512 7.94046512,9.86046512 C8.77823256,9.86046512 9.01283721,11.5190698 9.20111628,12.8517209 C9.33023256,13.7650233 9.42195349,14.3309767 9.61283721,14.4894884 C9.69674419,14.559814 9.78269767,14.5955349 9.86902326,14.5955349 C10.5594419,14.5955349 10.9828837,12.2563721 11.0009302,12.1547907 C11.1849302,10.9843721 11.1867907,10.3272558 11.1884651,9.89153488 C11.1895814,9.40874419 11.1901395,9.18772093 11.4132093,8.80483721 C11.552186,8.56688372 11.6824186,8.26827907 11.8014884,7.9175814 C12.016,7.24948837 12.4874419,4.56037209 11.5730233,3.52502326 C11.1713488,3.02325581 10.5754419,2.76893023 9.80148837,2.76893023 C8.88502326,2.76893023 8.03423256,3.13413953 7.98251163,3.15646512" id="path-2"></path>
    </defs>
    <g id="Page-1" stroke="none" stroke-width="1" fill="none" fill-rule="evenodd">
        <g id="Artboard" transform="translate(-1046.000000, -965.000000)">
            <g id="Group-5" transform="translate(1046.000000, 965.000000)">
                <path d="M14.6318698,15.9422512 C15.3555907,15.9422512 15.944614,15.3532279 15.944614,14.6287628 L15.944614,1.36662326 C15.944614,0.642344186 15.3555907,0.0533209302 14.6318698,0.0533209302 L1.36898605,0.0533209302 C0.645265116,0.0533209302 0.0562418605,0.642344186 0.0562418605,1.36662326 L0.0562418605,14.6287628 C0.0562418605,15.3532279 0.645265116,15.9422512 1.36898605,15.9422512 L14.6318698,15.9422512 Z" id="Fill-3" fill="url(#linearGradient-1)"></path>
                <mask id="mask-3" fill="white">
                    <use xlink:href="#path-2"></use>
                </mask>
                <use id="Clip-9" fill="#FFFFFF" xlink:href="#path-2"></use>
            </g>
        </g>
    </g>
</svg>