<?xml version="1.0" encoding="UTF-8"?>
<svg width="30px" height="39px" viewBox="0 0 30 39" version="1.1" xmlns="http://www.w3.org/2000/svg" xmlns:xlink="http://www.w3.org/1999/xlink">
    <!-- Generator: Sketch 51 (57462) - http://www.bohemiancoding.com/sketch -->
    <title>noun_1364296_cc</title>
    <desc>Created with Sketch.</desc>
    <defs>
        <path d="M14,6 C9.581722,6 6,9.581722 6,14 C6,18.418278 9.581722,22 14,22 C18.418278,22 22,18.418278 22,14 C21.9952817,9.58367786 18.4163221,6.0047183 14,6 Z M14,20.2835741 C11.4564109,20.2835735 9.16336064,18.7511234 8.19037157,16.4009877 C7.2173825,14.050852 7.75612963,11.3459981 9.55533103,9.54802151 C11.3545324,7.75004488 14.0597525,7.2131398 16.4092251,8.18772901 C18.7586977,9.16231821 20.289586,11.4564115 20.2878545,14 C20.2831341,17.470036 17.4700384,20.2812167 14,20.2835741 Z" id="path-1"></path>
    </defs>
    <g id="Page-1" stroke="none" stroke-width="1" fill="none" fill-rule="evenodd">
        <g id="Artboard" transform="translate(-650.000000, -1885.000000)" fill-rule="nonzero" stroke="#FFFFFF">
            <g id="noun_1364296_cc" transform="translate(651.000000, 1886.000000)">
                <path d="M23.9106604,3.98306476 C18.8247834,-0.954898669 10.7253067,-1.34986614 5.15765062,3.06858237 C-0.410005451,7.48703088 -1.64200069,15.2873819 2.30516774,21.1290155 L12.5260746,36.225375 C12.8535312,36.7089492 13.4087973,37 14.0039026,37 C14.5990079,37 15.1542741,36.7089492 15.4817307,36.225375 L25.7026375,21.1290155 C29.3415036,15.7191419 28.594241,8.56920307 23.9106604,3.98306476 Z M24.2248095,20.1817254 L14.0039026,35.2866966 L3.78299582,20.1817254 C0.413469504,15.2053592 1.34061538,8.57159298 5.95348755,4.65176942 C10.5663597,0.731945864 17.4458702,0.731945864 22.0587424,4.65176942 C26.6716145,8.57159298 27.5987604,15.2053592 24.2292341,20.1817254 L24.2248095,20.1817254 Z" id="Shape" stroke-width="0.4" fill="#FFFFFF"></path>
                <g id="Shape">
                    <use stroke-width="1" fill="#FFFFFF" xlink:href="#path-1"></use>
                    <use stroke-width="0.4" xlink:href="#path-1"></use>
                </g>
            </g>
        </g>
    </g>
</svg>