<?xml version="1.0" encoding="UTF-8"?>
<svg width="137px" height="42px" viewBox="0 0 137 42" version="1.1" xmlns="http://www.w3.org/2000/svg" xmlns:xlink="http://www.w3.org/1999/xlink">
    <!-- Generator: Sketch 50.2 (55047) - http://www.bohemiancoding.com/sketch -->
    <title>Group 10</title>
    <desc>Created with Sketch.</desc>
    <defs>
        <linearGradient x1="132.533061%" y1="123.333592%" x2="-82.1086841%" y2="-67.0192514%" id="linearGradient-1">
            <stop stop-color="#009CD1" offset="0%"></stop>
            <stop stop-color="#AAE0F2" offset="100%"></stop>
        </linearGradient>
        <path d="M20.954093,8.28572093 L20.9433488,8.28962791 C20.6063721,8.14848837 18.5796279,7.34218605 16.3922093,7.34218605 C14.486093,7.34218605 12.9882558,7.93995349 11.9421628,9.11937209 C10.4101395,10.8472326 9.88318605,13.8018837 10.3759535,17.9012791 L10.377907,17.913 C10.3832791,17.9457209 10.965907,21.1650698 12.1868372,23.260186 C12.7728837,24.2652558 12.7738605,24.8439767 12.7777674,26.1137442 C12.7806977,27.2560465 12.785093,28.9795116 13.2695581,32.0567442 C13.3198605,32.315093 14.5246744,38.380186 16.3682791,38.380186 C16.5538605,38.380186 16.733093,38.3220698 16.9157442,38.2033953 C17.8412093,37.6007442 18.0365581,35.3581395 18.2636512,32.76 C18.5581395,29.3794884 18.8633721,25.8837209 20.8437209,25.8837209 C23.0428605,25.8837209 23.6586977,30.2375581 24.1529302,33.7357674 C24.4918605,36.133186 24.7326279,37.618814 25.2336977,38.034907 C25.4539535,38.2195116 25.6795814,38.3132791 25.906186,38.3132791 C27.7185349,38.3132791 28.8300698,32.1729767 28.8774419,31.9063256 C29.3604419,28.8339767 29.3653256,27.1090465 29.3697209,25.9652791 C29.3726512,24.6979535 29.3741163,24.1177674 29.9596744,23.1126977 C30.3244884,22.4880698 30.6663488,21.7042326 30.978907,20.7836512 C31.542,19.029907 32.7795349,11.9709767 30.379186,9.25318605 C29.3247907,7.93604651 27.7605349,7.26844186 25.728907,7.26844186 C23.323186,7.26844186 21.0898605,8.22711628 20.954093,8.28572093" id="path-2"></path>
        <linearGradient x1="132.533061%" y1="123.333592%" x2="-86.6671051%" y2="-71.0618406%" id="linearGradient-4">
            <stop stop-color="#D4448C" offset="0%"></stop>
            <stop stop-color="#F5B6D6" offset="100%"></stop>
        </linearGradient>
        <path d="M11.9233073,0.426837209 L11.7326744,0.556255814 C11.5595487,0.672976744 11.418033,0.938651163 11.418033,1.14767442 L11.418033,7.97560465 C11.418033,8.18413953 11.5892135,8.35506977 11.7958945,8.35506977 L12.6780578,8.35506977 C12.8852252,8.35506977 13.0554331,8.18413953 13.0554331,7.97560465 L13.0554331,1.14767442 C13.0554331,0.938651163 12.9144037,0.672976744 12.7422505,0.556255814 L12.550645,0.426837209 C12.4640822,0.36872093 12.350286,0.339418605 12.2369762,0.339418605 C12.12318,0.339418605 12.0093839,0.36872093 11.9233073,0.426837209" id="path-5"></path>
        <path d="M29.670643,0.644801431 C29.670643,0.644801431 32.451354,3.6658712 26.2295254,3.7078712 C24.8211765,3.71763864 23.7167703,3.71470841 22.8380112,3.7112898 C19.8326258,3.70054562 19.465463,3.68931306 18.6212317,4.19135957 C17.1963484,5.03770841 16.1177165,8.90512701 19.1975071,10.2046852 L31.0877454,10.2046852 C33.6146034,10.2046852 35.9863291,6.3992898 33.2450091,2.9342898 C31.1446435,0.674103757 29.7445619,0.644801431 29.6735609,0.644801431 C29.6716156,0.644801431 29.670643,0.644801431 29.670643,0.644801431" id="path-7"></path>
        <linearGradient x1="132.533061%" y1="123.333592%" x2="-86.6671051%" y2="-71.0618406%" id="linearGradient-9">
            <stop stop-color="#71B143" offset="0%"></stop>
            <stop stop-color="#DCF5CA" offset="100%"></stop>
        </linearGradient>
        <path d="M14.2349766,7.84765116 C13.9064215,7.88134884 13.5582584,7.97316279 13.2129648,8.11967442 C12.8738883,8.28376744 12.5223774,8.48644186 12.2311256,8.79118605 C12.1531715,8.86151163 12.0876518,8.94404651 12.0206973,9.0265814 L11.9197874,9.15111628 L11.8700498,9.21411628 C11.8643109,9.2224186 11.8657456,9.21997674 11.8671803,9.21704651 C11.8705281,9.21167442 11.8738758,9.2067907 11.8327466,9.26930233 L11.8289206,9.27565116 L11.821747,9.28834884 L11.8059648,9.31423256 C11.7643574,9.38406977 11.7222718,9.45293023 11.6801861,9.52325581 C11.6620128,9.54865116 11.6304485,9.61897674 11.6051015,9.67123256 L11.5285821,9.84118605 L11.4568452,10.0135814 L11.4090206,10.1723023 C11.3808041,10.2797442 11.3454139,10.3866977 11.3291535,10.4956047 C11.3133714,10.605 11.297111,10.7143953 11.2808507,10.8247674 C11.2688945,10.9341628 11.2688945,11.0440465 11.264112,11.1544186 C11.2631556,12.0388605 11.5778415,12.8705581 12.0350447,13.5537907 C12.4927262,14.2443488 13.0924467,14.8035349 13.7433396,15.2523488 C13.7562523,15.2606512 13.765339,15.267 13.7772951,15.2743256 C13.3789161,16.2627907 13.0168839,17.3850698 13.0776211,18.084907 L13.3133964,20.8002558 C12.7748914,21.0766744 12.4162068,21.6651628 12.4568577,22.3083488 L13.7036452,41.8486047 L18.3316324,41.8486047 L16.1498738,21.9743023 C16.0800499,21.3330698 15.6247596,20.818814 15.0475166,20.6439767 L14.8117413,17.9281395 C14.785916,17.6297442 15.0236043,16.8727674 15.363159,16.0225116 C15.3622026,16.0220233 15.3617243,16.0220233 15.3612461,16.0215349 C15.5405883,16.0747674 15.7228001,16.1192093 15.9064466,16.1519302 C16.6702055,16.2896512 17.4750937,16.2515581 18.1958105,15.9580465 C18.5578427,15.8193488 18.8878325,15.6005581 19.168563,15.3412326 C19.4540759,15.091186 19.677895,14.7542093 19.8237601,14.4567907 C19.8634545,14.3664419 19.9036272,14.2770698 19.9433216,14.188186 C19.9729728,14.1007674 19.9973634,14.0157907 20.0231887,13.9298372 C20.0815347,13.7608605 20.0963603,13.5860233 20.1288811,13.4180233 C20.1570976,13.0786047 20.1609235,12.7479767 20.10736,12.4432326 C20.0150585,11.8298372 19.804152,11.305814 19.5702897,10.8784884 C19.5152914,10.7686047 19.4502499,10.6704419 19.3885562,10.5752093 C19.3273407,10.479 19.2685164,10.3862093 19.2039532,10.3041628 C19.1413029,10.219186 19.0815222,10.1386047 19.0246109,10.0609535 C18.9619607,9.98769767 18.9026582,9.91883721 18.8457469,9.85290698 C18.735272,9.71811628 18.6214495,9.61311628 18.5258003,9.51788372 C18.4311075,9.42118605 18.3440668,9.34744186 18.2723298,9.28883721 C18.1565943,9.19262791 18.0858139,9.13353488 18.0623798,9.114 L18.0384675,9.09593023 C18.0384675,9.09593023 17.9652959,9.04123256 17.8289957,8.93916279 C17.7118255,8.84295349 17.4411382,8.67202326 17.1412779,8.50451163 C17.063802,8.46251163 16.9825002,8.41855814 16.8968942,8.37265116 C16.8074622,8.33260465 16.7137259,8.29060465 16.616642,8.24762791 C16.5200363,8.20074419 16.4153004,8.16265116 16.3053038,8.12260465 C16.1962637,8.08255814 16.0829194,8.03860465 15.9604884,8.00881395 C15.5941519,7.90234884 15.1689911,7.82225581 14.6960058,7.82225581 C14.5472713,7.82225581 14.393276,7.83006977 14.2349766,7.84765116 M26.9214099,9.12425581 C26.8974976,9.12474419 26.8740635,9.12474419 26.8506295,9.12425581 C26.4728151,9.13548837 26.1107828,9.19213953 25.7812713,9.29811628 C25.1189005,9.51202326 25.5588868,10.5180698 26.0486108,10.4575116 C26.2906033,10.4223488 26.5455085,10.4179535 26.8028049,10.4487209 C26.8668898,10.4599535 26.9319313,10.4663023 26.9960163,10.4814419 C27.0639272,10.496093 27.1318381,10.5107442 27.2007056,10.5253953 C27.275312,10.5449302 27.3135716,10.5571395 27.3819608,10.5796047 C27.4455676,10.5996279 27.5082178,10.6235581 27.5703898,10.6494419 C28.0692004,10.8535814 28.5254472,11.2144884 28.8415678,11.6911395 C29.1562537,12.1663256 29.3255528,12.7499302 29.273424,13.3379302 C29.2222517,13.9278837 28.9539556,14.493907 28.515404,14.9046279 C28.2581076,15.148814 27.9482042,15.3343953 27.6158232,15.4530698 C27.5876066,15.4628372 27.5598684,15.4735814 27.5316519,15.4818837 C27.5158697,15.4872558 27.4991311,15.4911628 27.4828708,15.4955581 C27.2700513,15.5561163 27.0428844,15.5932326 26.8066308,15.5995814 C26.7975441,15.5995814 26.7889357,15.5995814 26.779849,15.5995814 C26.6779826,15.6010465 26.6043327,15.5956744 26.4646849,15.5907907 L26.4555982,15.5903023 L26.4197298,15.589814 L26.4149473,15.5893256 C26.3417756,15.5873721 26.2504307,15.585907 26.1313474,15.5849302 C26.1184347,15.5844419 26.1088698,15.5839535 26.1031309,15.5839535 C26.1031309,15.5839535 26.1031309,15.5839535 26.1026526,15.5839535 C26.0825663,15.5829767 26.0887835,15.5834651 26.0997831,15.5839535 C26.0926095,15.5849302 26.0758708,15.5863953 26.052915,15.589814 C26.0443066,15.5907907 26.0371329,15.5912791 26.0261332,15.5937209 C25.996482,15.5986047 25.9630048,15.6049535 25.938136,15.6137442 C25.9280928,15.6166744 25.9185279,15.6215581 25.9080065,15.6249767 C25.8491822,15.6435349 25.7894014,15.6664884 25.7468375,15.6962791 C25.7391856,15.7006744 25.7358379,15.7031163 25.7300989,15.7070233 C25.7267512,15.7089767 25.7234035,15.7104419 25.7200558,15.7123953 C25.7109691,15.7182558 25.7047519,15.7231395 25.6966217,15.7285116 C25.691361,15.7319302 25.6870568,15.7353488 25.6827526,15.7382791 C25.6789266,15.7407209 25.6755789,15.7436512 25.6727094,15.7456047 C25.6650575,15.7519535 25.6569273,15.757814 25.6507101,15.7626977 C25.6377974,15.7734419 25.6258413,15.7836977 25.6134069,15.7944419 C25.6119722,15.7963953 25.6105374,15.7968837 25.6091027,15.7983488 C25.605755,15.8017674 25.6047985,15.8027442 25.6014507,15.8056744 C25.59619,15.8105581 25.5899728,15.8159302 25.5837556,15.8217907 C25.5794514,15.8266744 25.5770602,15.8291163 25.5732342,15.8335116 C25.565104,15.8413256 25.5584086,15.8491395 25.5521914,15.855 C25.5488437,15.858907 25.5445395,15.8637907 25.5407135,15.8676977 C25.5402352,15.8686744 25.5388005,15.8706279 25.5373658,15.872093 C25.535931,15.8735581 25.5340181,15.876 25.5321051,15.8774651 C25.5278009,15.883814 25.5230184,15.889186 25.5163229,15.897 C25.506758,15.9087209 25.4991061,15.9189767 25.4924106,15.9277674 C25.4914542,15.9292326 25.4895412,15.9306977 25.4890629,15.9321628 C25.4881064,15.9331395 25.4876282,15.9346047 25.4861934,15.9360698 C25.4809327,15.9433953 25.4761503,15.9502326 25.4723243,15.9556047 C25.4589334,15.9761163 25.4474555,15.994186 25.4374123,16.0103023 C25.4374123,16.0107907 25.4369341,16.0112791 25.4369341,16.0112791 L25.4350211,16.0146977 C25.4302387,16.023 25.4244997,16.0317907 25.421152,16.0381395 L25.4139783,16.0523023 L25.4044134,16.0698837 C25.4015439,16.0747674 25.4001092,16.0786744 25.3977179,16.0835581 L25.390066,16.0982093 C25.3852835,16.1089535 25.382414,16.1157907 25.3781098,16.1250698 C25.3695014,16.1436279 25.3618495,16.1607209 25.3556323,16.1758605 C25.3518063,16.1836744 25.3489368,16.1914884 25.3460673,16.198814 C25.3379372,16.2193256 25.3302852,16.2388605 25.324068,16.2564419 L25.324068,16.2569302 L25.3235898,16.2574186 C25.3154596,16.2808605 25.3078077,16.303814 25.2996775,16.3262791 C25.2972862,16.3345814 25.2953733,16.3414186 25.292982,16.3492326 C25.2786347,16.3946512 25.265722,16.4371395 25.2542441,16.4781628 C25.2523311,16.485 25.2508964,16.4913488 25.2485052,16.498186 C25.2480269,16.5001395 25.2480269,16.5016047 25.2475487,16.5035581 C25.2461139,16.5089302 25.2446792,16.5133256 25.2437227,16.5186977 C25.2155062,16.6222326 25.1920721,16.7203953 25.1695946,16.817093 C25.1667251,16.8293023 25.1633774,16.8415116 25.1605079,16.8537209 C25.1576384,16.8678837 25.1547689,16.8815581 25.1518994,16.8957209 C25.1031183,17.1120698 25.0619892,17.3196279 25.022773,17.5252326 C25.0160776,17.5584419 25.0098604,17.5916512 25.0031649,17.6248605 C24.999339,17.6463488 24.995513,17.6673488 24.9912088,17.6888372 C24.9763831,17.7713721 24.9620358,17.8519535 24.9472101,17.9335116 C24.9271238,18.0473023 24.9056027,18.1606047 24.8859946,18.2743953 C24.8592129,18.4272558 24.8338658,18.5796279 24.8080405,18.7329767 C24.8027798,18.7656977 24.7960844,18.7993953 24.7913019,18.8326047 C24.7740851,18.9351628 24.7573464,19.0382093 24.7401296,19.1407674 C24.7128696,19.3063256 24.686566,19.4699302 24.6607407,19.6315814 C24.6578713,19.6525814 24.6540453,19.6740698 24.6506976,19.6955581 C24.5918733,20.0652558 24.5373533,20.425186 24.4852244,20.7719302 C23.8931558,20.874 23.3976929,21.3550465 23.2996524,21.9860233 L20.2178348,41.8486047 L24.6114814,41.8486047 L26.7200683,22.4563256 C26.783675,21.874186 26.4914667,21.322814 26.0227855,21.0366279 C26.052915,20.845186 26.0844793,20.6498372 26.117,20.4520465 C26.2136057,19.8650233 26.3159504,19.2638372 26.4235557,18.6631395 C26.4350336,18.6011163 26.4460333,18.539093 26.4575112,18.4765814 C26.4919449,18.2895349 26.5273351,18.102 26.5636818,17.9173953 C26.567986,17.8973721 26.571812,17.8773488 26.575638,17.8573256 C26.6172454,17.6487907 26.6602875,17.4446512 26.7066774,17.2478372 C26.7458936,17.2478372 26.7860662,17.2493023 26.8257607,17.248814 C26.8448905,17.248814 26.8625856,17.2458837 26.8812372,17.2453953 C26.9180622,17.2444186 26.9539306,17.2434419 26.9902773,17.2424651 C27.0156244,17.241 27.0400149,17.2366047 27.0653619,17.2351395 C27.149055,17.2297674 27.2313133,17.2224419 27.3130934,17.212186 C27.3523096,17.206814 27.3905693,17.1994884 27.4293072,17.1936279 C27.5120438,17.1799535 27.5938238,17.1662791 27.6746474,17.1477209 C27.7186461,17.1379535 27.7616882,17.1257442 27.8052086,17.1145116 C27.877902,17.0954651 27.9501172,17.076907 28.0204193,17.0544419 C28.0911997,17.0319767 28.1600672,17.0056047 28.2294129,16.9792326 C28.2628901,16.9665349 28.297802,16.9562791 28.3303228,16.943093 C28.3360617,16.9406512 28.3408442,16.9377209 28.3465831,16.9352791 C28.8119166,16.7443256 29.2466422,16.4698605 29.6172829,16.1167674 C30.3399127,15.4403721 30.8047679,14.4670465 30.8798525,13.4810233 C30.9205034,12.9872791 30.8712441,12.4881628 30.7406829,12.0217674 C30.6043828,11.5568372 30.3915633,11.1251163 30.1180066,10.752 C29.5704148,10.0052791 28.7990039,9.49834884 28.0132456,9.27809302 C27.9152052,9.24976744 27.8171648,9.22534884 27.7191243,9.20532558 C27.6263446,9.18481395 27.5015223,9.16430233 27.4154381,9.1525814 L27.2934853,9.13988372 C27.2203137,9.13060465 27.1897059,9.13255814 27.1366206,9.12865116 C27.0754051,9.12425581 27.0146679,9.12425581 26.9539306,9.12425581 C26.9434092,9.12425581 26.9324095,9.12425581 26.9214099,9.12425581 M26.1007396,15.5839535 C26.1036091,15.5844419 26.1064786,15.5844419 26.1088698,15.5844419 C26.1050438,15.5844419 26.1026526,15.5844419 26.0988266,15.5844419 C26.1007396,15.5839535 26.1002614,15.5844419 26.1007396,15.5839535" id="path-10"></path>
    </defs>
    <g id="Symbols" stroke="none" stroke-width="1" fill="none" fill-rule="evenodd">
        <g id="Header" transform="translate(-134.000000, -65.000000)">
            <g id="Group-7">
                <g id="Group-10" transform="translate(134.000000, 65.000000)">
                    <g id="Group-5" transform="translate(48.000000, 0.000000)">
                        <path d="M38.4086581,41.8484093 C40.3084256,41.8484093 41.8546116,40.3022233 41.8546116,38.4005023 L41.8546116,3.58738605 C41.8546116,1.68615349 40.3084256,0.139967442 38.4086581,0.139967442 L3.59358837,0.139967442 C1.69382093,0.139967442 0.147634884,1.68615349 0.147634884,3.58738605 L0.147634884,38.4005023 C0.147634884,40.3022233 1.69382093,41.8484093 3.59358837,41.8484093 L38.4086581,41.8484093 Z" id="Fill-3" fill="url(#linearGradient-1)"></path>
                        <mask id="mask-3" fill="white">
                            <use xlink:href="#path-2"></use>
                        </mask>
                        <use id="Clip-9" fill="#FFFFFF" xlink:href="#path-2"></use>
                    </g>
                    <g id="Group-4">
                        <path d="M38.4481677,41.8484093 C40.339907,41.8484093 41.8795592,40.3022233 41.8795592,38.4005023 L41.8795592,3.58738605 C41.8795592,1.68615349 40.339907,0.139967442 38.4481677,0.139967442 L3.78022044,0.139967442 C1.88848109,0.139967442 0.348828955,1.68615349 0.348828955,3.58738605 L0.348828955,38.4005023 C0.348828955,40.3022233 1.88848109,41.8484093 3.78022044,41.8484093 L38.4481677,41.8484093 Z" id="Fill-1" fill="url(#linearGradient-4)"></path>
                        <g id="Group-3" transform="translate(0.000000, 7.085152)">
                            <g id="Group" transform="translate(18.966024, 11.004150)">
                                <path d="M0.590864604,0.426837209 L0.400231744,0.556255814 C0.227105984,0.672976744 0.0865628803,0.938651163 0.0865628803,1.14767442 L0.0865628803,7.97560465 C0.0865628803,8.18413953 0.256284483,8.35506977 0.463938134,8.35506977 L1.34561511,8.35506977 C1.55326876,8.35506977 1.72347667,8.18413953 1.72347667,7.97560465 L1.72347667,1.14767442 C1.72347667,0.938651163 1.58196095,0.672976744 1.41029412,0.556255814 L1.21820233,0.426837209 C1.13212576,0.36872093 1.01832961,0.339418605 0.904533469,0.339418605 C0.791223631,0.339418605 0.677427485,0.36872093 0.590864604,0.426837209" id="Clip-15" fill="#FFFFFF"></path>
                                <path d="M2.85754767,0.426837209 L2.66594219,0.556255814 C2.49378905,0.672976744 2.35324594,0.938651163 2.35324594,1.14767442 L2.35324594,7.97560465 C2.35324594,8.18413953 2.52296755,8.35506977 2.7306212,8.35506977 L3.61229817,8.35506977 C3.81946552,8.35506977 3.98967343,8.18413953 3.98967343,7.97560465 L3.98967343,1.14767442 C3.98967343,0.938651163 3.84864402,0.672976744 3.67649087,0.556255814 L3.48439909,0.426837209 C3.39832252,0.36872093 3.28452637,0.339418605 3.17073022,0.339418605 C3.05742039,0.339418605 2.94362424,0.36872093 2.85754767,0.426837209" id="Clip-18" fill="#FFFFFF"></path>
                                <path d="M5.12423073,0.426837209 L4.93262525,0.556255814 C4.76047211,0.672976744 4.6194427,0.938651163 4.6194427,1.14767442 L4.6194427,7.97560465 C4.6194427,8.18413953 4.78965061,8.35506977 4.99730426,8.35506977 L5.87800862,8.35506977 C6.08614858,8.35506977 6.25635649,8.18413953 6.25635649,7.97560465 L6.25635649,1.14767442 C6.25635649,0.938651163 6.11532708,0.672976744 5.94317394,0.556255814 L5.75108215,0.426837209 C5.66500558,0.36872093 5.55120943,0.339418605 5.43741329,0.339418605 C5.32361714,0.339418605 5.2103073,0.36872093 5.12423073,0.426837209" id="Clip-21" fill="#FFFFFF"></path>
                                <path d="M7.39042748,0.426837209 L7.19882201,0.556255814 C7.02618256,0.672976744 6.88563945,0.938651163 6.88563945,1.14767442 L6.88563945,7.97560465 C6.88563945,8.18413953 7.05584736,8.35506977 7.26398732,8.35506977 L8.14469168,8.35506977 C8.35234533,8.35506977 8.52255325,8.18413953 8.52255325,7.97560465 L8.52255325,1.14767442 C8.52255325,0.938651163 8.38152383,0.672976744 8.20937069,0.556255814 L8.0172789,0.426837209 C7.93120233,0.36872093 7.81740619,0.339418605 7.70361004,0.339418605 C7.5903002,0.339418605 7.47650406,0.36872093 7.39042748,0.426837209" id="Clip-24" fill="#FFFFFF"></path>
                                <path d="M9.65662424,0.426837209 L9.46599138,0.556255814 C9.29286562,0.672976744 9.15183621,0.938651163 9.15183621,1.14767442 L9.15183621,7.97560465 C9.15183621,8.18413953 9.32204412,8.35506977 9.53018408,8.35506977 L10.4113747,8.35506977 C10.6190284,8.35506977 10.7882637,8.18413953 10.7882637,7.97560465 L10.7882637,1.14767442 C10.7882637,0.938651163 10.6477206,0.672976744 10.4755674,0.556255814 L10.2844483,0.426837209 C10.1978854,0.36872093 10.0840892,0.339418605 9.9702931,0.339418605 C9.85698327,0.339418605 9.74318712,0.36872093 9.65662424,0.426837209" id="Clip-27" fill="#FFFFFF"></path>
                                <mask id="mask-6" fill="white">
                                    <use xlink:href="#path-5"></use>
                                </mask>
                                <use id="Clip-30" fill="#FFFFFF" xlink:href="#path-5"></use>
                            </g>
                            <path d="M0.348683063,26.1221968 L6.55105933,26.1221968 C6.65172515,26.1221968 6.74995943,26.1134061 6.8472211,26.1007084 C6.94837323,26.1134061 7.05098428,26.1221968 7.15602688,26.1221968 L18.7734462,26.1221968 C18.7826861,26.1221968 18.791926,26.125127 18.8006795,26.125127 L32.3681952,26.125127 C33.1988098,26.125127 33.8791552,25.4423828 33.8791552,24.6072665 L33.8791552,21.8494293 C33.8791552,21.0143131 33.1988098,20.3315689 32.3681952,20.3315689 L18.8006795,20.3315689 C17.9700649,20.3315689 17.2897196,21.0143131 17.2897196,21.8494293 L17.2897196,22.5981038 L8.85761968,22.5981038 C8.69470639,21.4587317 7.72208976,20.5337549 6.55300456,20.4751503 L0.348683063,20.1669875 L0.348683063,26.1221968 Z" id="Clip-33" fill="#FFFFFF"></path>
                            <mask id="mask-8" fill="white">
                                <use xlink:href="#path-7"></use>
                            </mask>
                            <use id="Clip-36" fill="#FFFFFF" xlink:href="#path-7"></use>
                        </g>
                    </g>
                    <g id="Group-2" transform="translate(96.000000, 0.000000)">
                        <path d="M37.5828537,41.8484093 C39.4456221,41.8484093 40.9621404,40.3022233 40.9621404,38.4005023 L40.9621404,3.58738605 C40.9621404,1.68615349 39.4456221,0.139967442 37.5828537,0.139967442 L3.43991082,0.139967442 C1.57666416,0.139967442 0.0606241464,1.68615349 0.0606241464,3.58738605 L0.0606241464,38.4005023 C0.0606241464,40.3022233 1.57666416,41.8484093 3.43991082,41.8484093 L37.5828537,41.8484093 Z" id="Fill-5" fill="url(#linearGradient-9)"></path>
                        <mask id="mask-11" fill="white">
                            <use xlink:href="#path-10"></use>
                        </mask>
                        <use id="Clip-39" fill="#FFFFFF" xlink:href="#path-10"></use>
                    </g>
                </g>
            </g>
        </g>
    </g>
</svg>