<?xml version="1.0" encoding="UTF-8"?>
<svg width="78px" height="84px" viewBox="0 0 78 84" version="1.1" xmlns="http://www.w3.org/2000/svg" xmlns:xlink="http://www.w3.org/1999/xlink">
    <!-- Generator: Sketch 51 (57462) - http://www.bohemiancoding.com/sketch -->
    <title>Group Copy 3</title>
    <desc>Created with Sketch.</desc>
    <defs>
        <linearGradient x1="-13.4695472%" y1="-9.87849885%" x2="110.12549%" y2="120.413957%" id="linearGradient-1">
            <stop stop-color="#51DDD3" offset="0%"></stop>
            <stop stop-color="#79B7EE" offset="100%"></stop>
        </linearGradient>
    </defs>
    <g id="Page-1" stroke="none" stroke-width="1" fill="none" fill-rule="evenodd">
        <g id="Group-Copy-3" fill="url(#linearGradient-1)" fill-rule="nonzero">
            <path d="M63.9717903,2.06456338 C58.3744111,-1.12660269 50.8256053,-0.593893416 43.3805807,3.49982467 C41.9769825,4.27344068 40.5019285,4.72810975 38.9996532,4.8536527 C37.4973779,4.72810975 36.0240252,4.27344068 34.6187258,3.50152119 C27.1737011,-0.593893416 19.6248953,-1.12829922 14.0292175,2.06456338 C0.163369462,9.97716227 5.10573615,30.6120123 10.2131319,41.5563038 C11.5231568,44.3623583 11.8583191,47.0869797 11.2662559,50.1254584 C10.7660645,52.7024819 10.5108649,55.3575456 10.5108649,58.0176989 C10.5108649,66.7836506 13.2432025,75.1322568 18.2059852,81.5264646 C19.7507938,83.5181865 22.316401,84.4105594 24.7850323,83.809989 C27.2825863,83.2026326 29.1081145,81.2651995 29.5487593,78.7543405 L33.2457516,57.6478562 C33.6285511,55.4644268 35.4642873,53.9392496 37.7117456,53.9392496 L40.2841582,53.9392496 C42.5333178,53.9392496 44.369054,55.4627303 44.7518535,57.6478562 L48.4505472,78.7543405 C48.8911919,81.2651995 50.7150188,83.2043291 53.2142741,83.809989 C53.7331801,83.935532 54.2605927,84 54.7829013,84 C56.7462373,84 58.5734669,83.0991445 59.7933212,81.5264646 C64.7544026,75.1322568 67.4884416,66.7853471 67.4884416,58.0176989 C67.4884416,55.352456 67.2332419,52.6956958 66.7330506,50.1254584 C66.139286,47.0869797 66.4761496,44.3640549 67.7844732,41.5563038 C72.8935703,30.6120123 77.8376383,9.9788588 63.9717903,2.06456338 Z M57.1035169,79.4499163 C56.3651392,80.4016676 55.2065327,80.8054409 54.0224063,80.5136383 C52.8399813,80.2269254 52.0097317,79.3498213 51.8038707,78.1707355 L48.105177,57.0642511 C47.4433592,53.286087 44.1563876,50.5461969 40.2841582,50.5461969 L37.7117456,50.5461969 C33.8429188,50.5461969 30.5525446,53.286087 29.8924281,57.0642511 L26.1954358,78.1707355 C25.9895747,79.3498213 25.1593252,80.2269254 23.9769001,80.5136383 C22.7927737,80.8054409 21.6341672,80.4016676 20.8957896,79.4499163 C16.3923663,73.6477962 13.9118256,66.037179 13.9118256,58.0176989 C13.9118256,55.5730045 14.144908,53.1333996 14.6059687,50.7718349 C15.3307357,47.0479596 14.9037016,43.564991 13.2976451,40.126132 C8.68023267,30.2319904 3.99476697,11.700833 15.7186392,5.01142965 C20.2816091,2.4072617 26.5952486,2.96032929 32.9769413,6.47213883 C34.8552108,7.50362686 36.8406641,8.10080413 38.8788587,8.2467054 C38.9588213,8.25179498 39.0421865,8.25179498 39.122149,8.2467054 C41.162045,8.10080413 43.1474983,7.50362686 45.0257678,6.47044231 C51.4074605,2.96372234 57.7193987,2.4072617 62.2840699,5.01142965 C74.0062408,11.700833 69.3207751,30.2319904 64.705064,40.126132 C64.4498643,40.6724135 64.2354966,41.2220881 64.0398435,41.7700661 C61.9182837,46.0453125 63.3286872,50.4189574 63.3967404,50.7735314 C63.8578011,53.1333996 64.0908835,55.5713079 64.0908835,58.0193955 C64.0874808,66.037179 61.6052388,73.6477962 57.1035169,79.4499163 Z" id="Shape"></path>
            <polygon id="Line" points="2.17 28.84375 76.09 28.84375 77.63 28.84375 77.63 26 76.09 26 2.17 26 0.63 26 0.63 28.84375"></polygon>
            <rect id="Rectangle-4" x="26" y="18.05" width="26" height="18" rx="2"></rect>
        </g>
    </g>
</svg>