<?xml version="1.0" encoding="UTF-8"?>
<svg width="108px" height="83px" viewBox="0 0 108 83" version="1.1" xmlns="http://www.w3.org/2000/svg" xmlns:xlink="http://www.w3.org/1999/xlink">
    <!-- Generator: Sketch 50.2 (55047) - http://www.bohemiancoding.com/sketch -->
    <title>Group</title>
    <desc>Created with Sketch.</desc>
    <defs>
        <linearGradient x1="-13.4695472%" y1="-9.87849885%" x2="110.12549%" y2="120.413957%" id="linearGradient-1">
            <stop stop-color="#51DDD3" offset="0%"></stop>
            <stop stop-color="#79B7EE" offset="100%"></stop>
        </linearGradient>
    </defs>
    <g id="Page-1" stroke="none" stroke-width="1" fill="none" fill-rule="evenodd">
        <g id="Desktop-Copy-2" transform="translate(-142.000000, -1712.000000)" fill="url(#linearGradient-1)" fill-rule="nonzero">
            <g id="noun_1317868_cc" transform="translate(142.000000, 1712.000000)">
                <g id="Group">
                    <path d="M84.915,37.19894 C89.1366667,26.04706 91.6383333,9.31094 79.5533333,2.4236 C74.0716667,-0.69886 66.675,-0.17762 59.38,3.82796 C58.005,4.58492 56.5616667,5.0298 55.09,5.15264 C53.6166667,5.0298 52.1733333,4.58492 50.7983333,3.82962 C43.505,-0.17928 36.1083333,-0.69886 30.6266667,2.4236 C23.9816667,6.21172 21.7516667,12.9812 21.7883333,20.1607 C21.5746263,21.2508162 21.8133119,25.6776296 23.0623963,30.9526286 C23.8951192,34.4692946 25.0918122,37.7769749 26.6524751,40.8756694 C24.1678895,39.3497296 22.0484542,38.0829326 20.2941693,37.0752785 C15.0723274,34.0758738 11.8536732,33.8439885 11.8966667,34.14122 C8.63166667,33.53864 4.74833333,33.18506 0.0883333333,33.18506 L0.0883333333,36.50506 C21.6016667,36.50506 24.7716667,44.00162 26.87,48.95838 C27.15,49.62072 27.4266667,50.23658 27.7216667,50.8126 C27.3883333,52.9042 27.1783333,55.029 27.1783333,57.17372 C27.1783333,65.7526 29.855,73.92146 34.7166667,80.17634 C36.23,82.12518 38.7466667,82.99834 41.1616667,82.4107 C43.6083333,81.81642 45.3966667,79.9207 45.8283333,77.4639 L49.4516667,56.81184 C49.825,54.67542 51.625,53.18308 53.8266667,53.18308 L56.3466667,53.18308 C58.55,53.18308 60.3483333,54.67376 60.7216667,56.81184 L64.345,77.4639 C64.7783333,79.9207 66.565,81.81642 69.0133333,82.4107 C69.5216667,82.53354 70.0366667,82.59662 70.55,82.59662 C72.4733333,82.59662 74.2616667,81.71516 75.4583333,80.17634 C80.3183333,73.91814 82.9966667,65.75094 82.9966667,57.17372 C82.9966667,54.57084 82.7466667,51.97128 82.255,49.4514 C82.07,48.49358 82.0116667,47.57394 82.0133333,46.66592 C84.1016667,41.73738 87.87,34.94798 107.905,34.94798 L107.905,31.62798 C95.8116667,31.62798 88.9933333,34.08146 84.915,37.19894 Z M80.2683333,39.6657 C80.02,40.20022 79.8083333,40.73806 79.615,41.2759 C77.5416667,45.45744 78.92,49.73692 78.9883333,50.08386 C79.4383333,52.39458 79.6666667,54.78 79.6666667,57.17206 C79.6666667,65.01888 77.235,72.46564 72.825,78.14284 C72.1016667,79.0741 70.9666667,79.46918 69.8066667,79.18366 C68.6483333,78.90312 67.8333333,78.0449 67.6316667,76.8912 L64.0083333,56.23914 C63.3616667,52.54398 60.1416667,49.86142 56.3483333,49.86142 L53.8283333,49.86142 C50.0366667,49.86142 46.815,52.54398 46.1683333,56.23914 L42.5466667,76.8912 C42.345,78.0449 41.5316667,78.90312 40.3733333,79.18366 C39.215,79.46918 38.0783333,79.0741 37.355,78.14284 C32.9433333,72.46564 30.5133333,65.01888 30.5133333,57.17206 C30.5133333,54.77668 30.7416667,52.3896 31.1933333,50.0822 C31.9033333,46.44016 31.4833333,43.03218 29.9116667,39.6657 C25.3883333,29.98458 20.7983333,11.8524 32.2816667,5.30702 C36.75,2.75892 42.935,3.30174 49.1883333,6.73628 C51.0283333,7.74556 52.9733333,8.32988 54.9716667,8.47264 C55.05,8.47762 55.1316667,8.47762 55.21,8.47264 C57.2066667,8.32988 59.1533333,7.74556 60.9933333,6.73462 C67.245,3.30174 73.4283333,2.75726 77.8983333,5.30702 C89.3816667,11.8524 84.7916667,29.98458 80.2683333,39.6657 Z" id="Shape"></path>
                    <path d="M62.2166667,11.60008 C58.1316667,14.44366 51.96,14.42374 47.895,11.55194 C47.1433333,11.02074 46.1033333,11.19836 45.5716667,11.9437 C45.0383333,12.69236 45.215,13.7282 45.9666667,14.2594 C48.57,16.09702 51.81,17.11294 55.09,17.11294 C58.3316667,17.11294 61.54,16.12026 64.1233333,14.32082 C64.8783333,13.79626 65.0633333,12.76208 64.5366667,12.00844 C64.01,11.25812 62.97,11.07552 62.2166667,11.60008 Z" id="Shape"></path>
                </g>
            </g>
        </g>
    </g>
</svg>