<?xml version="1.0" encoding="UTF-8"?>
<svg width="211px" height="211px" viewBox="0 0 211 211" version="1.1" xmlns="http://www.w3.org/2000/svg" xmlns:xlink="http://www.w3.org/1999/xlink">
    <!-- Generator: Sketch 51 (57462) - http://www.bohemiancoding.com/sketch -->
    <title>noun_Phone_1841284</title>
    <desc>Created with Sketch.</desc>
    <defs></defs>
    <g id="Page-1" stroke="none" stroke-width="1" fill="none" fill-rule="evenodd">
        <g id="Artboard" transform="translate(-274.000000, -1760.000000)" fill="#FFFFFF">
            <g id="noun_Phone_1841284" transform="translate(274.000000, 1760.000000)">
                <path d="M45,4 L74,48 C76,52 77,58 74,61 C55,80 51,76 66,92 L120,145 C137,162 129,159 150,138 C154,134 159,135 164,138 L208,167 C214,171 209,181 204,186 L185,205 C146,244 -33,65 6,27 L25,7 C30,3 40,-3 45,4 Z" id="Shape"></path>
            </g>
        </g>
    </g>
</svg>