<?xml version="1.0" encoding="UTF-8"?>
<svg width="61px" height="88px" viewBox="0 0 61 88" version="1.1" xmlns="http://www.w3.org/2000/svg" xmlns:xlink="http://www.w3.org/1999/xlink">
    <!-- Generator: Sketch 50.2 (55047) - http://www.bohemiancoding.com/sketch -->
    <title>Group</title>
    <desc>Created with Sketch.</desc>
    <defs>
        <linearGradient x1="-13.4695472%" y1="-9.87849885%" x2="110.12549%" y2="120.413957%" id="linearGradient-1">
            <stop stop-color="#51DDD3" offset="0%"></stop>
            <stop stop-color="#79B7EE" offset="100%"></stop>
        </linearGradient>
    </defs>
    <g id="Page-1" stroke="none" stroke-width="1" fill="none" fill-rule="evenodd">
        <g id="Desktop-Copy-2" transform="translate(-793.000000, -1702.000000)" fill="url(#linearGradient-1)" fill-rule="nonzero">
            <g id="Group" transform="translate(793.000000, 1702.000000)">
                <path d="M52.9012206,1.73490055 C47.8817112,-0.947255692 41.1086546,-0.498329435 34.4317456,2.94058821 C33.1711452,3.58903725 31.8479726,3.97240602 30.5003815,4.0764429 C29.1527905,3.97098086 27.8311441,3.58903725 26.5705437,2.94058821 C19.8921085,-0.499754598 13.1205781,-0.947255692 8.09801634,1.73490055 C-4.3385852,8.38328464 0.0948823974,25.7161136 4.67791276,34.9098383 C5.03197971,35.6224197 5.31126528,36.3421269 5.50661256,37.0504328 C5.68059373,37.6789295 6.28952783,38.1193048 6.98545253,38.1193048 L9.13427262,38.1193048 L9.13427262,40.9653547 C9.13427262,44.1349166 10.9946503,46.9011575 13.7432475,48.3790512 L14.2606126,50.9514699 C12.2552507,51.056932 10.6604233,52.6117845 10.6604233,54.5086761 C10.6604233,56.4739755 12.3712381,58.0715829 14.4757999,58.0715829 L15.7364003,58.0715829 L16.0339997,59.4967456 L14.4757999,59.4967456 C12.3712381,59.4967456 10.6604233,61.094353 10.6604233,63.0596524 C10.6604233,65.0249518 12.3712381,66.6225592 14.4757999,66.6225592 L17.5281011,66.6225592 L17.8257005,68.0477219 L16.0019505,68.0477219 C13.8973888,68.0477219 12.1865739,69.6453293 12.1865739,71.6106287 C12.1865739,73.5759281 13.8973888,75.1735355 16.0019505,75.1735355 L18.2881241,75.1735355 C18.2881241,75.1735355 18.2896503,75.1735355 18.2911764,75.1735355 L19.319802,75.1735355 L19.6418198,76.7070106 C17.9905248,77.1003555 16.7650258,78.4998653 16.7650258,80.161605 C16.7650258,82.1269044 18.4758407,83.7245118 20.5804024,83.7245118 L21.5952926,83.7245118 C23.1977507,86.3496616 26.2149506,88 29.5480635,88 L32.1333627,88 C35.5046295,88 38.5325124,86.3496616 40.1151306,83.7245118 L40.4203607,83.7245118 C42.5249224,83.7245118 44.2357373,82.1269044 44.2357373,80.161605 C44.2357373,78.6951126 43.2818931,77.4309933 41.9220929,76.8851559 L42.247163,75.1735355 L44.9988126,75.1735355 C47.1033743,75.1735355 48.8141892,73.5759281 48.8141892,71.6106287 C48.8141892,69.6453293 47.1033743,68.0477219 44.9988126,68.0477219 L43.6008586,68.0477219 L43.8725134,66.6225592 L44.2357373,66.6225592 C44.2387896,66.6225592 44.2387896,66.6225592 44.2387896,66.6225592 L46.5249632,66.6225592 C48.629525,66.6225592 50.3403398,65.0249518 50.3403398,63.0596524 C50.3403398,61.094353 48.629525,59.4967456 46.5249632,59.4967456 L45.2246829,59.4967456 L45.4963377,58.0715829 L46.5249632,58.0715829 C48.629525,58.0715829 50.3403398,56.4739755 50.3403398,54.5086761 C50.3403398,52.6360123 48.7836662,51.0954114 46.816458,50.9571706 L47.2575155,48.3776261 C50.0091651,46.8997323 51.8664905,44.1334915 51.8664905,40.9653547 L51.8664905,38.1193048 L54.0153106,38.1193048 C54.7127614,38.1193048 55.3201694,37.6789295 55.4941505,37.0475824 C55.6879717,36.3464024 55.9657311,35.6281204 56.3228503,34.9098383 C60.9043545,25.7161136 65.3393483,8.38043431 52.9012206,1.73490055 Z M43.9732394,49.5206066 L43.5230249,52.1457563 C43.4512959,52.5576283 43.5764402,52.9780513 43.8694611,53.2958626 C44.1579036,53.6136739 44.5821735,53.7975199 45.0293356,53.7975199 L46.5249632,53.7975199 C46.9385501,53.7975199 47.2880386,54.1238821 47.2880386,54.5101012 C47.2880386,54.8963203 46.9385501,55.2226826 46.5249632,55.2226826 L44.2174235,55.2226826 C43.4757143,55.2226826 42.8438879,55.7186392 42.7156912,56.3984418 L41.902253,60.67393 C41.8244193,61.0900775 41.9465113,61.5162012 42.2364799,61.8382879 C42.5264486,62.1603747 42.9552969,62.347071 43.4055113,62.347071 L46.5249632,62.347071 C46.9385501,62.347071 47.2880386,62.6734333 47.2880386,63.0596524 C47.2880386,63.4458715 46.9385501,63.7722338 46.5249632,63.7722338 L42.5935992,63.7722338 C42.5905469,63.7722338 42.5905469,63.7722338 42.5874946,63.7722338 L25.9219296,63.7722338 C25.0779683,63.7722338 24.395779,64.4107067 24.395779,65.1973965 C24.395779,65.9855115 25.0779683,66.6225592 25.9219296,66.6225592 L40.7713753,66.6225592 L40.2769025,69.2234812 C40.1990688,69.6396287 40.3211609,70.0657523 40.6111295,70.3878391 C40.9010981,70.7099259 41.3299465,70.8966222 41.7801609,70.8966222 L44.9988126,70.8966222 C45.4123994,70.8966222 45.7618879,71.2229845 45.7618879,71.6092036 C45.7618879,71.9954227 45.4123994,72.3217849 44.9988126,72.3217849 L40.9682488,72.3217849 C40.2265396,72.3217849 39.5947132,72.8177415 39.4665165,73.4975442 L38.6530783,77.7730323 C38.5752446,78.1891798 38.6973366,78.6153035 38.9873052,78.9373903 C39.2772739,79.259477 39.7061222,79.4461734 40.1563366,79.4461734 L40.4203607,79.4461734 C40.8339475,79.4461734 41.183436,79.7725356 41.183436,80.1587547 C41.183436,80.5449738 40.8339475,80.8713361 40.4203607,80.8713361 L39.1658649,80.8713361 C39.1124496,80.8713361 39.0620866,80.888438 39.0071452,80.8941387 C38.9689914,80.8912884 38.9354161,80.8713361 38.8942101,80.8713361 L32.2234056,80.8713361 C31.3809705,80.8713361 30.697255,81.509809 30.697255,82.2964988 C30.697255,83.0846138 31.3794443,83.7216615 32.2234056,83.7216615 L36.2417602,83.7216615 C35.1505625,84.6223644 33.6991933,85.1468242 32.1348889,85.1468242 L29.5495897,85.1468242 C27.090961,85.1468242 24.8887257,83.8085964 23.9440384,81.7364098 C23.7044328,81.21195 23.1504401,80.8713361 22.5399798,80.8713361 L20.5804024,80.8713361 C20.1668156,80.8713361 19.8173271,80.5449738 19.8173271,80.1587547 C19.8173271,79.7725356 20.1668156,79.4461734 20.5804024,79.4461734 L21.4716744,79.4461734 C21.9279934,79.4461734 22.359894,79.2552015 22.6498627,78.9274141 C22.9383051,78.5982015 23.0573449,78.1663772 22.9688282,77.7488046 L22.4285708,75.1706852 L35.0788335,75.1706852 C35.9227948,75.1706852 36.6049841,74.5336375 36.6049841,73.7455225 C36.6049841,72.9588327 35.9227948,72.3203598 35.0788335,72.3203598 L20.5804024,72.3203598 C20.5788763,72.3203598 20.5773501,72.3203598 20.575824,72.3203598 L16.0019505,72.3203598 C15.5883637,72.3203598 15.2388752,71.9939975 15.2388752,71.6077784 C15.2388752,71.2215593 15.5883637,70.895197 16.0019505,70.895197 L19.6799735,70.895197 C20.1362926,70.895197 20.5681932,70.7042252 20.8581618,70.3764378 C21.1466043,70.0472252 21.265644,69.6154009 21.1771273,69.1978282 L20.2812769,64.9223401 C20.140871,64.2510884 19.5136231,63.7693834 18.7841231,63.7693834 L14.4757999,63.7693834 C14.062213,63.7693834 13.7127245,63.4430212 13.7127245,63.0568021 C13.7127245,62.670583 14.062213,62.3442207 14.4757999,62.3442207 L17.8882727,62.3442207 C18.3445917,62.3442207 18.7764924,62.1532489 19.066461,61.8254615 C19.3549034,61.4962489 19.4739432,61.0644246 19.3854265,60.6468519 L18.8451691,58.0687326 L36.6049841,58.0687326 C37.4489454,58.0687326 38.1311347,57.4316848 38.1311347,56.6435698 C38.1311347,55.8554548 37.4489454,55.2184071 36.6049841,55.2184071 L16.9939484,55.2184071 L14.4757999,55.2184071 C14.062213,55.2184071 13.7127245,54.8920448 13.7127245,54.5058258 C13.7127245,54.1196067 14.062213,53.7932444 14.4757999,53.7932444 L16.098098,53.7932444 C16.5528909,53.7932444 16.9817392,53.6036977 17.273234,53.2787606 C17.5647287,52.9538235 17.6837685,52.5219992 17.5998302,52.1072769 L17.0794128,49.5191814 L18.2957549,49.5191814 L42.7080605,49.5191814 L43.9732394,49.5191814 L43.9732394,49.5206066 Z M48.8141892,40.9653547 C48.8141892,44.1106889 46.0747488,46.6702811 42.7065343,46.6702811 L18.2942287,46.6702811 C14.9260143,46.6702811 12.1865739,44.1106889 12.1865739,40.9653547 L12.1865739,38.1193048 L48.8141892,38.1193048 L48.8141892,40.9653547 Z M53.5559392,33.707001 C53.2964936,34.2257602 53.0736756,34.7473698 52.8829068,35.2689794 L51.8664905,35.2689794 L9.13427262,35.2689794 L8.11938245,35.2689794 C7.92708747,34.7459446 7.70274333,34.2243351 7.44482387,33.707001 C3.30285104,25.395452 -0.900167818,9.82839964 9.61653622,4.20898303 C13.7096722,2.02135825 19.3732172,2.48738646 25.0978083,5.43604813 C26.7826786,6.3011219 28.5636964,6.80420434 30.393551,6.92676834 C30.4652801,6.93104382 30.5400615,6.93104382 30.6117905,6.92676834 C32.4431713,6.80420434 34.222663,6.30254707 35.9060071,5.43462297 C41.629072,2.48881163 47.292617,2.02135825 51.385753,4.20898303 C61.8994048,9.82697447 57.6963859,25.395452 53.5559392,33.707001 Z" id="Shape"></path>
                <path d="M37.5898147,9.36203114 C33.8331572,12.2709651 28.1544889,12.2505992 24.4208219,9.31451063 C23.7295724,8.76972195 22.7716324,8.95131818 22.2826998,9.71504063 C21.7937673,10.4804602 21.9547012,11.5394887 22.644418,12.0825802 C25.0400343,13.9613375 28.0196109,15 31.0375051,15 C34.0186143,15 36.9706022,13.9850977 39.3462934,12.1453752 C40.0375429,11.6090723 40.2092058,10.551741 39.7233386,9.78122991 C39.2405369,9.01581029 38.2856623,8.82912258 37.5898147,9.36203114 Z" id="Shape"></path>
            </g>
        </g>
    </g>
</svg>