<?xml version="1.0" encoding="UTF-8"?>
<svg width="68px" height="84px" viewBox="0 0 68 84" version="1.1" xmlns="http://www.w3.org/2000/svg" xmlns:xlink="http://www.w3.org/1999/xlink">
    <!-- Generator: Sketch 50.2 (55047) - http://www.bohemiancoding.com/sketch -->
    <title>Tooth</title>
    <desc>Created with Sketch.</desc>
    <defs>
        <linearGradient x1="-13.4695472%" y1="-9.87849885%" x2="110.12549%" y2="120.413957%" id="linearGradient-1">
            <stop stop-color="#51DDD3" offset="0%"></stop>
            <stop stop-color="#79B7EE" offset="100%"></stop>
        </linearGradient>
    </defs>
    <g id="Page-1" stroke="none" stroke-width="1" fill="none" fill-rule="evenodd">
        <g id="Services" transform="translate(-305.000000, -747.000000)" fill="url(#linearGradient-1)" fill-rule="nonzero">
            <g id="Group-2" transform="translate(305.000000, 747.000000)">
                <g id="Tooth">
                    <path d="M58.9717903,2.06456338 C53.3744111,-1.12660269 45.8256053,-0.593893416 38.3805807,3.49982467 C36.9769825,4.27344068 35.5019285,4.72810975 33.9996532,4.8536527 C32.4973779,4.72810975 31.0240252,4.27344068 29.6187258,3.50152119 C22.1737011,-0.593893416 14.6248953,-1.12829922 9.02921747,2.06456338 C-4.83663054,9.97716227 0.105736146,30.6120123 5.21313194,41.5563038 C6.52315685,44.3623583 6.85831906,47.0869797 6.26625586,50.1254584 C5.76606453,52.7024819 5.51086487,55.3575456 5.51086487,58.0176989 C5.51086487,66.7836506 8.24320253,75.1322568 13.2059852,81.5264646 C14.7507938,83.5181865 17.316401,84.4105594 19.7850323,83.809989 C22.2825863,83.2026326 24.1081145,81.2651995 24.5487593,78.7543405 L28.2457516,57.6478562 C28.6285511,55.4644268 30.4642873,53.9392496 32.7117456,53.9392496 L35.2841582,53.9392496 C37.5333178,53.9392496 39.369054,55.4627303 39.7518535,57.6478562 L43.4505472,78.7543405 C43.8911919,81.2651995 45.7150188,83.2043291 48.2142741,83.809989 C48.7331801,83.935532 49.2605927,84 49.7829013,84 C51.7462373,84 53.5734669,83.0991445 54.7933212,81.5264646 C59.7544026,75.1322568 62.4884416,66.7853471 62.4884416,58.0176989 C62.4884416,55.352456 62.2332419,52.6956958 61.7330506,50.1254584 C61.139286,47.0869797 61.4761496,44.3640549 62.7844732,41.5563038 C67.8935703,30.6120123 72.8376383,9.9788588 58.9717903,2.06456338 Z M52.1035169,79.4499163 C51.3651392,80.4016676 50.2065327,80.8054409 49.0224063,80.5136383 C47.8399813,80.2269254 47.0097317,79.3498213 46.8038707,78.1707355 L43.105177,57.0642511 C42.4433592,53.286087 39.1563876,50.5461969 35.2841582,50.5461969 L32.7117456,50.5461969 C28.8429188,50.5461969 25.5525446,53.286087 24.8924281,57.0642511 L21.1954358,78.1707355 C20.9895747,79.3498213 20.1593252,80.2269254 18.9769001,80.5136383 C17.7927737,80.8054409 16.6341672,80.4016676 15.8957896,79.4499163 C11.3923663,73.6477962 8.91182563,66.037179 8.91182563,58.0176989 C8.91182563,55.5730045 9.14490799,53.1333996 9.6059687,50.7718349 C10.3307357,47.0479596 9.90370163,43.564991 8.29764513,40.126132 C3.68023267,30.2319904 -1.00523303,11.700833 10.7186392,5.01142965 C15.2816091,2.4072617 21.5952486,2.96032929 27.9769413,6.47213883 C29.8552108,7.50362686 31.8406641,8.10080413 33.8788587,8.2467054 C33.9588213,8.25179498 34.0421865,8.25179498 34.122149,8.2467054 C36.162045,8.10080413 38.1474983,7.50362686 40.0257678,6.47044231 C46.4074605,2.96372234 52.7193987,2.4072617 57.2840699,5.01142965 C69.0062408,11.700833 64.3207751,30.2319904 59.705064,40.126132 C59.4498643,40.6724135 59.2354966,41.2220881 59.0398435,41.7700661 C56.9182837,46.0453125 58.3286872,50.4189574 58.3967404,50.7735314 C58.8578011,53.1333996 59.0908835,55.5713079 59.0908835,58.0193955 C59.0874808,66.037179 56.6052388,73.6477962 52.1035169,79.4499163 Z" id="Shape"></path>
                    <path d="M41.3196527,12.3625903 C37.149308,15.2704141 30.8418533,15.2483465 26.6885373,12.3133627 C25.92054,11.7701615 24.8596479,11.9517944 24.3147274,12.7139735 C23.7698069,13.4795477 23.9503118,14.53879 24.7183092,15.0819912 C27.3782023,16.9611277 30.6885944,18 34.0415583,18 C37.3536532,18 40.6316906,16.9848928 43.2728521,15.1447988 C44.0425523,14.6083876 44.2315716,13.5508428 43.6934626,12.7801762 C43.1553536,12.0129045 42.0944615,11.8295741 41.3196527,12.3625903 Z" id="Shape"></path>
                </g>
            </g>
        </g>
    </g>
</svg>