<?xml version="1.0" encoding="UTF-8"?>
<svg width="51px" height="50px" viewBox="0 0 51 50" version="1.1" xmlns="http://www.w3.org/2000/svg" xmlns:xlink="http://www.w3.org/1999/xlink">
    <!-- Generator: Sketch 50.2 (55047) - http://www.bohemiancoding.com/sketch -->
    <title>yelp-logo</title>
    <desc>Created with Sketch.</desc>
    <defs></defs>
    <g id="Page-1" stroke="none" stroke-width="1" fill="none" fill-rule="evenodd">
        <g id="Desktop-Copy-2" transform="translate(-788.000000, -3853.000000)">
            <g id="Group-13" transform="translate(726.000000, 3800.000000)">
                <g id="Group-5" transform="translate(0.000000, 53.000000)">
                    <g id="yelp-logo" transform="translate(62.666667, 0.000000)">
                        <circle id="Oval" fill="#FFFFFF" cx="25.5" cy="25.5" r="22.5"></circle>
                        <path d="M25,0 C11.1933504,0 0,11.1928389 0,25 C0,38.8071611 11.1933504,50 25,50 C38.8066496,50 50,38.8071611 50,25 C50,11.1928389 38.8066496,0 25,0 Z M9.76265985,31.9877238 C9.46956522,29.6491049 9.64603581,26.3524297 9.93810742,25.0624041 C10.2603581,23.6337596 11.0531969,23.2772379 12.4086957,23.8204604 C15.086445,24.8930946 17.7565217,25.9831202 20.4255754,27.0762148 C21.2685422,27.4219949 21.6393862,28.0204604 21.6025575,28.8895141 C21.5667519,29.7140665 21.1585678,30.2352941 20.2828645,30.5140665 C17.4710997,31.4102302 14.6603581,32.3089514 11.8409207,33.1805627 C10.7196931,33.5268542 10.0132992,33.1452685 9.76265985,31.9877238 Z M24.9289003,43.6388747 C24.916624,44.768798 24.3365729,45.3713555 23.2158568,45.2603581 C20.716624,45.0132992 18.4097187,44.1616368 16.340665,42.742711 C15.4030691,42.0992327 15.3278772,41.2731458 16.0526854,40.398977 C17.9703325,38.0900256 19.9079284,35.7974425 21.8511509,33.5094629 C22.3948849,32.8690537 23.1232737,32.7263427 23.9063939,33.0368286 C24.6388747,33.3278772 24.9769821,33.8352941 24.9810742,34.6992327 C24.9887468,36.1892583 24.9831202,37.6787724 24.9831202,39.168798 C24.9672634,39.168798 24.9508951,39.168798 24.9335038,39.168798 C24.9329923,40.659335 24.9462916,42.1493606 24.9289003,43.6388747 Z M24.9253197,22.8910486 C24.5815857,24.1340153 23.3457801,24.4982097 22.3657289,23.6501279 C21.9703325,23.3079284 21.6322251,22.8726343 21.3503836,22.4286445 C18.6424552,18.1749361 15.9503836,13.9109974 13.2588235,9.64705882 C12.4813299,8.41585678 12.6363171,7.67314578 13.940665,7.0112532 C16.5222506,5.70076726 19.2675192,4.90946292 22.1631714,4.73503836 C23.543734,4.65217391 24.029156,5.11560102 24.1248082,6.48235294 C24.4639386,11.3570332 24.7851662,16.2327366 25.1258312,21.2849105 C25.0767263,21.7104859 25.0818414,22.3237852 24.9253197,22.8910486 Z M28.226087,24.6982097 C29.9907928,22.3048593 31.744757,19.9023018 33.5227621,17.5181586 C34.2838875,16.4971867 35.1120205,16.3984655 36.0542199,17.2731458 C37.8035806,18.8976982 39.1104859,20.8480818 39.944757,23.084399 C40.3969309,24.2946292 39.9974425,25.002046 38.7498721,25.3227621 C35.9140665,26.0521739 33.0700767,26.7508951 30.2286445,27.4588235 C30.0578005,27.5007673 29.8782609,27.5109974 29.7360614,27.5309463 C28.9636829,27.5094629 28.4363171,27.1421995 28.0976982,26.5120205 C27.7652174,25.8915601 27.7974425,25.2782609 28.226087,24.6982097 Z M39.9734015,36.5923274 C39.0081841,38.4956522 37.7012788,40.1375959 36.0987212,41.5421995 C35.8516624,41.7590793 35.5647059,41.9462916 35.2680307,42.0879795 C34.569821,42.4209719 33.9212276,42.2828645 33.513555,41.6378517 C31.829156,38.9744246 30.1621483,36.2992327 28.5171355,33.6117647 C28.0956522,32.9191816 28.3094629,32.2322251 28.802046,31.6414322 C29.2736573,31.0767263 29.8859335,30.8639386 30.5943734,31.0987212 C33.5012788,32.0598465 36.402046,33.0352941 39.3053708,34.0071611 C39.9682864,34.2286445 40.3452685,34.6613811 40.3872123,35.4117647 C40.2521739,35.8061381 40.1606138,36.2230179 39.9734015,36.5923274 Z" id="Shape" fill="#D32323" fill-rule="nonzero"></path>
                    </g>
                </g>
            </g>
        </g>
    </g>
</svg>